<svg fill="none" height="24" viewBox="0 0 24 24" width="24" xmlns="http://www.w3.org/2000/svg"><path clip-rule="evenodd" d="m8.62469 6.21917c.43127.34501.50119.9743.15618 1.40556l-2.70025 3.37527h13.91938c.5523 0 1 .4478 1 1 0 .5523-.4477 1-1 1h-13.91938l2.70025 3.3753c.34501.4313.27509 1.0606-.15618 1.4056-.43126.345-1.06055.2751-1.40556-.1562l-3.99505-4.9938c-.14009-.1721-.22408-.3917-.22408-.6309s.084-.4588.2241-.6309l3.99503-4.99376c.34501-.43126.9743-.50118 1.40556-.15617z" fill="#747a7b" fill-rule="evenodd"/></svg>