<svg fill="none" height="24" viewBox="0 0 24 24" width="24" xmlns="http://www.w3.org/2000/svg"><path clip-rule="evenodd" d="m7.90533 4c-2.70322 0-4.90533 2.17779-4.90533 4.86219 0 2.04111.87341 3.74581 2.63587 5.60941.7025.7427 1.32696 1.3181 2.87321 2.6859 1.37711 1.218 2.00452 1.7883 2.78862 2.5567.3888.3811 1.011.3811 1.3999 0 .7851-.7695 1.4132-1.3402 2.7933-2.5603 1.546-1.3669 2.1706-1.9421 2.873-2.6845 1.7626-1.8627 2.6361-3.5668 2.6361-5.60717 0-2.6847-2.2046-4.86223-4.9101-4.86223-1.8499 0-2.9003.93526-4.0923 3.08351-1.192-2.14821-2.24245-3.08351-4.09227-3.08351zm1.92882 11.6594c-1.49946-1.3263-2.09853-1.8783-2.74521-2.5621-1.4433-1.526-2.08894-2.7862-2.08894-4.23511 0-1.57483 1.30173-2.86219 2.90533-2.86219 1.02881 0 1.69572.73861 2.76397 2.85104l.2687.53325c.4014.79441 1.7173.79441 2.1191.00024l.2687-.53337c1.0683-2.11255 1.7352-2.85116 2.7641-2.85116 1.6065 0 2.9101 1.28766 2.9101 2.86223 0 1.44797-.6456 2.70737-2.0888 4.23257-.6466.6834-1.2458 1.2352-2.7451 2.5607-.992.8771-1.6057 1.4276-2.1685 1.9574-.5616-.5288-1.1742-1.0785-2.16345-1.9535z" fill="#747a7b" fill-rule="evenodd"/></svg>