<svg fill="none" height="24" viewBox="0 0 24 24" width="24" xmlns="http://www.w3.org/2000/svg"><path clip-rule="evenodd" d="m7.90533 4c-2.70322 0-4.90533 2.17779-4.90533 4.86219 0 2.04111.87341 3.74581 2.63587 5.60941.7025.7427 1.32696 1.3181 2.87321 2.6859 1.37711 1.218 2.00452 1.7883 2.78862 2.5567.3888.3811 1.011.3811 1.3999 0 .7851-.7695 1.4132-1.3402 2.7933-2.5603 1.546-1.3669 2.1706-1.9421 2.873-2.6845 1.7626-1.8627 2.6361-3.5668 2.6361-5.60717 0-2.6847-2.2046-4.86223-4.9101-4.86223-1.8499 0-2.9003.93526-4.0923 3.08351-1.192-2.14821-2.24245-3.08351-4.09227-3.08351z" fill="#747a7b" fill-rule="evenodd"/></svg>